<svg width="184" height="48" viewBox="0 0 184 48" fill="none" xmlns="http://www.w3.org/2000/svg">
<path d="M104.766 42.2296C104.766 42.2296 116.66 33.0094 125.24 42.1936C125.24 42.1936 124.333 45.351 117.567 45.9753C113.396 46.3595 110.24 45.5071 106.058 44.0785C103.435 43.178 102.163 45.9753 101.255 47.56L101.117 44.6187L102.241 43.3581L100.693 43.2621L99.8843 39.2162C99.8843 39.2162 102.626 43.8984 104.766 42.2296Z" fill="#2475AE"/>
<path d="M124.796 4.11213C124.796 4.11213 136.68 -5.10806 145.27 4.06411C145.27 4.06411 144.363 7.22154 137.597 7.84582C133.426 8.242 130.26 7.37761 126.088 5.94896C123.455 5.04855 122.183 7.84582 121.275 9.43054L121.137 6.48921L122.262 5.21663L120.713 5.12058L119.905 1.08675C119.905 1.08675 122.646 5.76888 124.786 4.10012L124.796 4.11213Z" fill="#2475AE"/>
<path d="M163.476 29.4197C163.476 29.4197 175.36 20.1995 183.95 29.3837C183.95 29.3837 183.042 32.5411 176.277 33.1654C172.115 33.5616 168.949 32.6972 164.768 31.2685C162.144 30.3801 160.862 33.1774 159.965 34.7501L159.827 31.8088L160.951 30.5482L159.403 30.4522L158.594 26.4183C158.594 26.4183 161.346 31.1005 163.486 29.4317L163.476 29.4197Z" fill="#2475AE"/>
<path d="M62.0825 4.42424C62.0825 4.42424 73.9763 -4.79598 82.5564 4.38823C82.5564 4.38823 81.6393 7.54567 74.8836 8.16996C70.7218 8.56614 67.556 7.70174 63.3745 6.27309C60.7511 5.37268 59.4789 8.16996 58.5617 9.75468L58.4236 6.81334L59.5479 5.54075L57.9996 5.44471L57.1909 1.41086C57.1909 1.41086 59.9325 6.10501 62.0726 4.42424H62.0825Z" fill="#2475AE"/>
<path d="M47.2991 32.6132C47.2991 32.6132 57.822 24.4614 65.4061 32.5772C65.4061 32.5772 64.5974 35.3744 58.6209 35.9387C54.9324 36.2869 52.1316 35.5185 48.4332 34.2579C46.1058 33.4776 44.9815 35.9507 44.1826 37.3434L44.0544 34.7382L45.0505 33.6216L43.6797 33.5376L42.9597 29.96C42.9597 29.96 45.3858 34.1019 47.2794 32.6252L47.2991 32.6132Z" fill="#2475AE"/>
<path d="M16.7756 27.1387C16.7756 27.1387 25.4543 20.4036 31.7267 27.1147C31.7267 27.1147 31.0659 29.4197 26.125 29.8879C23.0775 30.1761 20.7599 29.5398 17.7125 28.5073C15.7992 27.847 14.8623 29.8879 14.2016 31.0405L14.1029 28.8915L14.9215 27.9671L13.7873 27.895L13.1956 24.9417C13.1956 24.9417 15.2075 28.3632 16.7756 27.1387Z" fill="#2475AE"/>
<path d="M89.0359 20.1395C89.0359 20.1395 97.7245 13.3923 103.997 20.1034C103.997 20.1034 103.326 22.4085 98.3853 22.8767C95.3379 23.1528 93.0202 22.5286 89.9728 21.4841C88.0497 20.8358 87.1226 22.8767 86.4619 24.0292L86.3633 21.8803L87.1818 20.9558L86.0477 20.8838L85.4559 17.9304C85.4559 17.9304 87.458 21.352 89.026 20.1274L89.0359 20.1395Z" fill="#2475AE"/>
<path d="M3.57011 40.909C3.57011 40.909 12.2587 34.1739 18.5311 40.885C18.5311 40.885 17.8604 43.19 12.9195 43.6582C9.87206 43.9343 7.55444 43.3101 4.50702 42.2656C2.5839 41.6173 1.65685 43.6582 0.996082 44.8108L0.907322 42.6618L1.72588 41.7373L0.591732 41.6773L0 38.724C0 38.724 2.00203 42.1455 3.57011 40.921V40.909Z" fill="#2475AE"/>
</svg>
