<svg width="54" height="54" viewBox="0 0 54 54" fill="none" xmlns="http://www.w3.org/2000/svg">
<path d="M24.297 23.5123H41.0092L51.7303 1.2804H35.018L24.297 23.5123Z" fill="#C6C6C6"/>
<path d="M28.7115 23.5123H11.9942L1.27319 1.2804H17.9854L28.7115 23.5123Z" fill="#C6C6C6"/>
<path d="M23.6053 23.5123H17.1004L6.37939 1.2804H12.8792L23.6053 23.5123Z" fill="#A3A3A3"/>
<path d="M28.7117 24.7926H11.9944C11.5061 24.7926 11.0636 24.5109 10.85 24.0705L0.128985 1.83857C-0.064279 1.44423 -0.0388496 0.973062 0.195101 0.599201C0.429052 0.225341 0.835923 0 1.27331 0H17.9855C18.4738 0 18.9162 0.281676 19.1298 0.722114L29.8509 22.954C30.0442 23.3484 30.0187 23.8195 29.7848 24.1934C29.5508 24.5672 29.144 24.7926 28.7066 24.7926H28.7117ZM12.7928 22.2319H26.6824L17.1921 2.56069H3.30258L12.7928 22.2319Z" fill="#EBEBEB"/>
<path d="M29.4032 23.5123H35.903L46.624 1.2804H40.1242L29.4032 23.5123Z" fill="#A3A3A3"/>
<path d="M41.0092 24.7926H24.297C23.8596 24.7926 23.4527 24.5672 23.2188 24.1934C22.9848 23.8195 22.9594 23.3535 23.1527 22.954L33.8737 0.722114C34.0873 0.281676 34.5298 0 35.018 0H51.7302C52.1676 0 52.5745 0.225341 52.8085 0.599201C53.0424 0.973062 53.0678 1.43911 52.8746 1.83857L42.1535 24.0705C41.9399 24.5109 41.4974 24.7926 41.0092 24.7926ZM26.3263 22.2319H40.2158L49.701 2.56069H35.8114L26.3263 22.2319Z" fill="#EBEBEB"/>
<path d="M41.6376 38.6662C45.2205 30.2483 41.3483 20.4994 32.9887 16.8914C24.6291 13.2835 14.9477 17.1828 11.3648 25.6007C7.78186 34.0187 11.6541 43.7676 20.0137 47.3755C28.3733 50.9835 38.0547 47.0842 41.6376 38.6662Z" fill="#AFAFAF"/>
<path d="M26.5042 50C16.7241 50 8.76465 41.9851 8.76465 32.1367C8.76465 22.2883 16.719 14.2733 26.5042 14.2733C36.2895 14.2733 44.2438 22.2883 44.2438 32.1367C44.2438 41.9851 36.2844 50 26.5042 50ZM26.5042 16.834C18.1227 16.834 11.3076 23.6966 11.3076 32.1367C11.3076 40.5767 18.1227 47.4394 26.5042 47.4394C34.8858 47.4394 41.7008 40.5767 41.7008 32.1367C41.7008 23.6966 34.8858 16.834 26.5042 16.834Z" fill="#EBEBEB"/>
<path d="M26.5042 43.4242C20.3249 43.4242 15.2949 38.3591 15.2949 32.1366C15.2949 29.1201 16.4596 26.288 18.5804 24.1575C19.0788 23.6556 19.8824 23.6556 20.3808 24.1575C20.8792 24.6594 20.8792 25.4686 20.3808 25.9705C18.7432 27.6196 17.843 29.8115 17.843 32.1418C17.843 36.9559 21.7337 40.8686 26.5093 40.8686C31.2849 40.8686 35.1756 36.9559 35.1756 32.1418C35.1756 27.3277 31.2849 23.4149 26.5093 23.4149C25.8074 23.4149 25.2378 22.8413 25.2378 22.1346C25.2378 21.4278 25.8074 20.8542 26.5093 20.8542C32.6886 20.8542 37.7186 25.9193 37.7186 32.1418C37.7186 38.3642 32.6886 43.4293 26.5093 43.4293L26.5042 43.4242Z" fill="#848484"/>
</svg>
