<svg width="62" height="53" viewBox="0 0 62 53" fill="none" xmlns="http://www.w3.org/2000/svg">
<path d="M9.51858 17.1399C9.81174 16.8459 9.9702 16.2419 9.93059 15.1771C9.81966 11.6884 8.55195 8.35868 8.02902 4.92565C7.91017 4.16275 7.94979 3.04225 8.18748 2.34292C9.59781 -1.83712 17.3467 0.71382 20.2069 1.3893C28.241 3.2727 37.939 6.67395 43.9844 12.499C47.0269 15.4314 49.5385 18.8644 52.0977 22.2021C54.2845 25.055 54.6886 28.6549 57.7073 31.0628C59.2285 32.2707 62.2314 32.9542 61.9858 35.5369C61.7085 38.5328 57.3745 37.2931 55.2986 37.4839C51.4401 37.8415 49.1582 41.052 46.0602 42.84C41.9006 45.232 37.3368 47.4571 32.8919 49.2531C27.8449 51.2875 13.6228 54.6967 8.82134 49.7617C5.77884 46.6386 10.406 41.0997 10.1683 37.2534C9.94642 33.6535 5.58869 36.8958 3.70298 36.562C-0.250687 35.8627 0.446545 28.8139 0.240543 25.8735C0.0186958 22.7663 -1.09846 14.1519 4.44776 15.3757C6.25424 15.7731 8.58364 18.0856 9.51858 17.1479V17.1399Z" fill="#FFD503"/>
<path d="M13.0682 13.2221C12.7988 12.6659 12.6324 11.903 12.5215 11.442C12.2521 10.3215 12.1728 9.16925 11.8718 8.0567C11.5073 6.68189 11.2458 5.10047 11.9114 3.77335C12.981 1.6277 18.4638 3.04224 20.3337 3.60646C23.812 4.65545 27.1318 6.21303 30.4833 7.5481C31.7589 8.0567 33.0979 8.62887 34.223 9.43944C34.8173 9.86063 38.042 11.6248 36.5128 12.642C35.9027 13.0473 34.635 12.34 34.0408 12.1732C30.7368 11.2354 26.8862 10.4646 23.4396 10.9573C21.1973 11.2752 18.9868 11.9506 16.9901 13.0235C16.071 13.5162 14.4309 14.6685 13.4406 13.7705C13.2979 13.6433 13.1791 13.4526 13.0682 13.2301V13.2221Z" fill="#49290E"/>
<path d="M7.21294 29.3145C6.10369 29.2748 5.01822 29.5847 3.90897 29.5767" stroke="#49290E" stroke-width="2" stroke-linecap="round" stroke-linejoin="round"/>
<path d="M7.6091 22.6948C6.5157 22.4802 5.39062 22.4246 4.30514 22.0352" stroke="#49290E" stroke-width="2" stroke-linecap="round" stroke-linejoin="round"/>
<path d="M46.1632 28.7979C46.1632 30.2602 47.3438 31.4442 48.8016 31.4442C50.2595 31.4442 51.44 30.2602 51.44 28.7979C51.44 27.3357 50.2595 26.1516 48.8016 26.1516C47.3438 26.1516 46.1632 27.3357 46.1632 28.7979Z" fill="#49290E"/>
<path d="M12.5056 49.1498C12.0381 48.8081 11.6816 48.3472 11.4835 47.7273C10.9923 46.1936 11.1824 44.2148 11.9272 42.7923C12.981 40.7897 15.041 41.7116 16.7445 42.1645C18.3608 42.5937 20.0405 43.2135 21.6727 43.4758C23.6773 43.8016 25.6818 44.0241 27.7102 44.1671C29.5721 44.3022 31.6004 44.0161 33.4069 44.5486C35.3877 45.1287 33.5733 46.3843 32.2739 46.9644C29.7623 48.0929 27.3853 48.9035 24.6439 49.3564C22.5126 49.7061 20.3733 50.1273 18.2024 50.1352C16.5306 50.1352 13.9952 50.2544 12.5135 49.1578L12.5056 49.1498Z" fill="#49290E"/>
<path d="M33.3119 19.8498C34.6192 20.1439 35.879 20.6048 37.1625 20.9624C37.9945 21.1929 38.7789 21.177 39.0403 20.1916C39.6108 18.0539 35.9978 17.4976 34.6271 17.2353C32.2264 16.7744 29.7702 16.7347 27.3299 16.6155C24.2081 16.4645 21.0309 16.4645 17.9805 17.1956C17.109 17.4022 16.1186 17.6406 15.3659 18.1413C15.0886 18.324 14.6132 18.626 14.7399 19.0313C14.9301 19.6273 16.1661 19.2538 16.586 19.1823C17.4576 19.0393 18.3371 18.9677 19.2165 18.9201C20.9359 18.8406 22.6552 18.8962 24.3745 18.9042C27.3695 18.928 30.3803 19.1744 33.3119 19.8419V19.8498Z" fill="#FFAC06"/>
<path d="M32.2343 35.2429C33.5654 35.1316 34.8806 34.8535 36.2038 34.6866C37.0595 34.5753 37.8281 34.7025 37.9548 35.7197C38.2242 37.913 34.5637 37.9527 33.1692 38.0163C30.7289 38.1276 28.2886 37.8256 25.8641 37.5951C22.7582 37.3011 19.6048 36.8561 16.689 35.6958C15.8571 35.3621 14.9143 34.9886 14.2329 34.3925C13.9872 34.178 13.5594 33.8045 13.7416 33.423C14.011 32.8588 15.1836 33.4071 15.5956 33.5343C16.4355 33.7965 17.2991 33.9952 18.1628 34.1621C19.8504 34.4879 21.5618 34.6786 23.2653 34.9091C26.2365 35.3144 29.2473 35.4892 32.2422 35.2508L32.2343 35.2429Z" fill="#FFAC06"/>
<path d="M14.8033 25.8656C14.0744 24.7769 15.4134 24.7133 16.1027 24.7371C17.4338 24.7769 18.8045 24.7371 20.1356 24.7371C24.2319 24.7371 28.3123 24.6974 32.3769 25.047C33.3515 25.1345 34.4766 25.1901 35.4115 25.4762C36.1246 25.6987 37.1942 26.5411 37.0516 27.4232C36.8535 28.6946 35.356 28.5993 34.429 28.647C31.545 28.79 28.6372 28.8536 25.7532 28.7105C23.1147 28.5754 19.9058 28.5278 17.41 27.5344C16.5227 27.1847 15.3421 26.692 14.7875 25.8656H14.8033Z" fill="#FFAC06"/>
</svg>
