<svg width="641" height="449" viewBox="0 0 641 449" fill="none" xmlns="http://www.w3.org/2000/svg">
<g clip-path="url(#clip0_134_43)">
<path fill-rule="evenodd" clip-rule="evenodd" d="M534 -60.9999C566 -65.5 646.2 -40.1999 641 1.00011C640.117 4.67132 638.852 8.13639 637.06 11.3146C630.333 23.2536 616.247 31.1675 602.162 39.0813C588.075 46.9957 573.989 54.9099 567.264 66.8499C560.539 78.7884 561.173 94.7495 561.808 110.711C562.442 126.675 563.076 142.639 556.348 154.579C549.621 166.519 535.536 174.433 521.45 182.347C507.365 190.261 493.279 198.175 486.552 210.115C479.828 222.053 480.462 238.014 481.096 253.976C481.73 269.94 482.365 285.904 475.637 297.844C468.91 309.784 454.824 317.698 440.739 325.612C426.653 333.526 412.568 341.44 405.841 353.38V353.384C400.932 362.098 399.767 373.224 399.617 385H241.383C241.233 373.224 240.068 362.098 235.159 353.384C228.432 341.445 214.346 333.531 200.261 325.617C186.174 317.703 172.088 309.789 165.363 297.849C158.639 285.91 159.273 269.949 159.907 253.988C160.541 238.024 161.175 222.06 154.448 210.119C147.721 198.18 133.635 190.266 119.55 182.352C105.464 174.437 91.3787 166.523 84.6516 154.584C77.9273 142.645 78.5614 126.684 79.1955 110.723C79.8297 94.759 80.4639 78.7948 73.7363 66.8544C67.0092 54.9149 52.9238 47.0008 38.8383 39.0867C24.7528 31.1726 10.6673 23.2585 3.94025 11.3191C2.15212 8.14088 0.887238 4.6758 0 1.00005H0.500084C-4.66615 -39.9324 46.331 -57.2743 72 -60.93V-61H72.5H534L534 -60.9999Z" fill="white"/>
<g clip-path="url(#clip1_134_43)">
<path d="M267.425 377.551C267.633 365.4 257.889 343.055 248.519 334.482C240.94 327.575 230.487 325.203 228.03 338.061C226.489 346.259 233.694 353.416 237.525 360.074C249.185 380.173 230.196 383.169 215.62 395.486C194.34 413.504 217.078 418.664 234.027 410.134C249.06 402.56 256.723 387.871 267.841 376.428" fill="#EC7286"/>
<path d="M350.546 340.308C350.837 334.149 346.048 322.914 339.968 321C335.637 329.281 337.428 345.302 346.964 349.088C349.171 346.966 350.004 343.596 350.504 340.308" fill="#EC7286"/>
<path d="M345.507 430.94C345.09 437.057 339.135 447.752 332.847 448.958C329.474 440.261 333.055 424.49 342.925 421.827C344.882 424.199 345.34 427.611 345.507 430.94Z" fill="#EC7286"/>
<path d="M423.505 409.551C417.925 405.473 405.848 392.657 405.349 392.116C404.724 391.45 404.641 390.41 405.057 389.661C405.349 389.244 411.054 380.131 415.926 376.386L417.425 375.179C420.84 372.475 424.713 369.354 428.253 370.436C430.168 370.977 431.501 372.599 432.375 375.221C432.459 375.471 432.5 375.72 432.584 375.97C433.875 382.711 423.547 388.454 417.259 391.283C420.674 393.322 425.587 396.776 429.419 401.479C431.418 403.934 432.542 406.014 432.875 407.72C433.167 409.094 432.875 410.217 432.042 411.091C430.335 412.839 427.128 412.298 423.505 409.593V409.551Z" fill="#EC7286"/>
<path d="M313.691 341.723C312.067 341.931 310.443 342.181 308.777 342.472C305.321 343.096 301.614 343.97 297.825 345.052C298.2 372.932 300.74 400.646 307.736 427.112C310.734 428.069 313.733 428.984 316.773 429.692C308.402 399.814 299.116 369.104 313.691 341.723Z" fill="#F6BFBC"/>
<path d="M275.42 354.706C259.346 364.568 249.893 379.798 266.759 400.313C269.465 403.601 272.464 406.638 275.629 409.385C270.84 391.7 269.965 372.849 275.42 354.748V354.706Z" fill="#F6BFBC"/>
<path d="M291.537 347.133C285.915 349.13 280.376 351.668 275.421 354.706C269.965 372.849 270.84 391.658 275.629 409.343C279.043 412.298 282.708 414.961 286.581 417.374C282 394.488 283.208 370.394 291.537 347.133Z" fill="#EC7286"/>
<path d="M307.736 427.112C300.74 400.688 298.2 372.932 297.825 345.052C295.743 345.676 293.619 346.342 291.537 347.091C283.208 370.352 282 394.446 286.581 417.333C293.161 421.411 300.323 424.657 307.736 427.07V427.112Z" fill="#F6BFBC"/>
<path d="M333.347 432.355C326.601 402.685 325.559 371.642 330.265 340.475C324.893 340.475 319.396 340.891 313.691 341.681C299.116 369.062 308.402 399.772 316.773 429.65C322.228 430.94 327.808 431.856 333.347 432.313V432.355Z" fill="#EC7286"/>
<path d="M345.09 341.265C340.135 340.683 335.221 340.433 330.265 340.475C325.559 371.642 326.642 402.685 333.347 432.355C336.345 432.605 339.385 432.771 342.383 432.771C333.472 401.603 331.598 369.354 345.09 341.265Z" fill="#F6BFBC"/>
<path d="M361.04 431.231C354.085 402.186 348.547 371.601 359.79 343.804C354.752 342.68 349.921 341.889 345.09 341.307C331.598 369.395 333.472 401.645 342.383 432.813C348.755 432.813 355.043 432.313 361.04 431.231Z" fill="#F6BFBC"/>
<path d="M403.058 364.36C393.563 355.039 390.482 353.666 382.111 350.004C374.366 346.633 368.494 345.718 360.498 343.928C360.249 343.845 359.999 343.804 359.749 343.762C348.505 371.559 354.044 402.144 360.998 431.19C362.706 430.898 364.413 430.607 366.037 430.191C401.934 421.869 431.917 392.573 403.017 364.319L403.058 364.36Z" fill="#F6BFBC"/>
<path d="M383.569 370.977C392.564 373.806 390.232 387.081 381.362 386.914C370.41 386.706 374.407 368.813 383.569 370.977Z" fill="#241C1D"/>
</g>
</g>
<defs>
<clipPath id="clip0_134_43">
<rect width="641" height="449" fill="white"/>
</clipPath>
<clipPath id="clip1_134_43">
<rect width="226" height="128" fill="white" transform="translate(207 321)"/>
</clipPath>
</defs>
</svg>
