<svg width="132" height="207" viewBox="0 0 132 207" fill="none" xmlns="http://www.w3.org/2000/svg">
<g clip-path="url(#clip0_124_51)">
<path d="M92.1417 195.648C89.8137 202.704 85.1831 208.198 76.9719 209.467C57.1589 212.551 47.2524 187.235 40.724 173.301C32.4117 155.561 28.4896 134.382 32.9431 115.068C36.5615 99.3708 43.5328 87.4678 44.507 70.9076C45.38 55.9844 40.2559 30.9982 47.0247 17.5471C56.9439 -2.18554 79.9452 3.30914 88.1436 20.5165C97.8857 40.9851 89.4215 69.6767 81.3748 89.5743C75.7067 103.571 70.2031 116.096 73.8722 131.692C76.8454 144.356 87.9792 150.739 91.4585 162.693C93.9762 171.347 95.5956 185.204 92.1543 195.635L92.1417 195.648Z" fill="#20BC8C"/>
<path d="M66.1419 179.367C66.1039 172.578 62.9156 165.624 60.4611 159.355C55.8938 147.668 52.1994 136.336 53.3634 123.608C54.6665 109.282 57.0704 94.9801 60.2713 80.9706C63.4217 67.2276 67.7613 53.4211 69.3808 39.3862C69.5199 38.1299 69.0265 34.691 70.317 33.9169C71.8985 32.9652 73.1764 45.0205 73.2523 46.3275C73.771 55.8576 71.6075 65.1592 69.3428 74.3466C66.7365 84.9425 64.864 95.5766 63.0421 106.325C61.6378 114.599 59.9044 122.961 60.4358 131.4C60.9545 139.521 63.738 147.287 67.0022 154.673C70.026 161.5 73.2523 168.251 76.2002 175.091C77.9968 179.253 79.9705 188.148 75.1121 191.067C68.318 195.141 66.1672 183.999 66.1419 179.38V179.367Z" fill="#1A996F"/>
<path d="M106.894 211.396C85.3981 217.728 78.7685 194.405 77.478 178.568C76.352 164.71 80.4639 151.018 88.093 139.509C92.0278 133.57 95.3426 128.126 94.381 120.512C91.9392 101.109 67.0528 66.1236 90.1806 51.5811C125.151 29.6151 131.78 93.9015 130.566 115.208C130.123 122.923 126.922 130.08 126.074 137.694C125.151 146.056 128.187 151.31 130.11 159.051C134.791 177.984 127.213 205.394 106.881 211.383L106.894 211.396Z" fill="#59EABD"/>
<path d="M56.7541 219.936C56.2606 220.317 55.704 220.66 55.0714 220.952C50.3016 216.929 51.1492 205 49.5931 199.315C45.5824 184.697 36.3338 176.309 26.1236 165.421C24.365 163.543 20.0127 159.736 21.9738 157.122C29.7294 159.013 37.6622 164.66 43.9123 169.533C50.8836 174.964 59.7399 181.702 62.9535 190.268C65.0158 195.737 62.6372 198.11 61.2329 203.11C59.7273 208.452 61.5871 216.155 56.7541 219.936V219.936Z" fill="#59EABD"/>
<path d="M59.9424 221.713C59.6893 222.284 59.3477 222.842 58.9302 223.401C52.8319 222.056 48.0621 211.104 44.0388 206.802C33.7148 195.737 21.6322 192.615 7.55051 187.742C5.12133 186.905 -0.496149 185.56 0.0352345 182.337C7.77825 180.395 17.4191 181.689 25.2127 183.085C33.9046 184.646 44.8612 186.473 51.6806 192.564C56.0329 196.448 55.0334 199.645 56.1088 204.734C57.2475 210.165 62.4728 216.129 59.9424 221.726V221.713Z" fill="#59EABD"/>
<path d="M55.9443 213.312C55.3623 213.515 54.7171 213.668 54.0212 213.744C50.7696 208.401 55.3497 197.374 55.6786 191.473C56.501 176.334 50.3901 165.434 44.1527 151.856C43.0772 149.508 40.1673 144.521 42.8495 142.668C49.6057 146.932 55.337 154.812 59.7272 161.424C64.6236 168.797 70.8863 177.997 71.2279 187.146C71.443 192.983 68.4445 194.481 65.5219 198.77C62.4095 203.351 61.7263 211.257 55.9443 213.3V213.312Z" fill="#59EABD"/>
<path d="M75.7447 212.513C75.8965 213.109 75.9977 213.756 76.023 214.467C70.4561 217.284 59.8664 211.802 54.0339 210.99C39.0666 208.934 27.7304 214.15 13.7247 219.264C11.3081 220.152 6.10816 222.652 4.48871 219.822C9.28381 213.414 17.5709 208.325 24.5041 204.48C32.2218 200.191 41.888 194.684 51.01 195.09C56.8299 195.344 58.0698 198.465 62.0932 201.739C66.3948 205.229 74.1885 206.561 75.7447 212.5V212.513Z" fill="#59EABD"/>
<path d="M101.96 75.2348C101.795 75.0191 101.605 74.8541 101.416 74.778C98.7839 73.7501 99.5304 78.826 99.7075 80.0442C100.264 83.7243 101.681 87.4424 102.061 91.1858C102.491 95.3608 103.161 99.5738 103.693 103.749C104.515 110.221 105.35 116.718 105.363 123.253C105.363 133.088 101.669 141.501 99.0116 150.777C96.8861 158.163 96.3421 166.322 97.1391 173.936C97.7338 179.57 98.3537 185.001 100.694 190.204C101.934 192.945 103.503 194.798 104.794 191.08C105.818 188.136 103.971 185.293 103.465 182.463C102.807 178.771 102.592 174.799 102.276 171.093C100.796 154.203 110.727 139.572 111.373 123.05C111.815 111.832 110.487 99.7388 107.349 89.0032C106.59 86.4145 105.755 83.8385 104.768 81.3259C104.275 80.0823 103.756 78.8641 103.174 77.6585C102.908 77.1256 102.491 75.92 101.96 75.2348V75.2348Z" fill="#38CE9C"/>
<path d="M126.897 194.76C125.34 192.907 123.291 191.359 120.748 190.344C112.157 186.905 102.175 191.169 93.1918 188.846C86.7519 187.197 83.4624 183.479 75.8333 184.113C66.9136 184.849 56.9439 188.681 51.6427 195.94C48.1001 200.787 42.2929 212.399 45.8101 218.325C48.4291 222.728 62.0426 227.55 67.0907 228.654C75.2133 230.418 83.0702 225.076 91.3446 223.16C102.617 220.545 146.128 217.792 126.897 194.747V194.76Z" fill="#49290E"/>
<path d="M68.3433 190.953C67.0022 190.775 65.5472 190.788 64.2187 190.953C62.789 191.118 61.4859 192.032 60.3472 192.856C58.9555 193.859 57.7156 195.064 56.5769 196.346C55.4889 197.564 52.3006 200.876 52.8572 202.818C53.3254 204.468 56.4757 204.15 57.9307 204.239C60.2713 204.391 60.499 203.427 62.1438 201.549C63.8771 199.557 65.6357 197.653 67.407 195.712C67.9764 195.09 70.1019 193.542 70.2158 192.666C70.3676 191.511 69.2922 191.08 68.3433 190.953Z" fill="#774623"/>
</g>
<defs>
<clipPath id="clip0_124_51">
<rect width="132" height="207" fill="white"/>
</clipPath>
</defs>
</svg>
