<svg width="390" height="265" viewBox="0 0 390 265" fill="none" xmlns="http://www.w3.org/2000/svg">
<path d="M132.766 42.2296C132.766 42.2296 144.66 33.0094 153.24 42.1936C153.24 42.1936 152.333 45.351 145.567 45.9753C141.396 46.3595 138.24 45.5071 134.058 44.0785C131.435 43.178 130.163 45.9753 129.255 47.56L129.117 44.6187L130.241 43.3581L128.693 43.2621L127.884 39.2162C127.884 39.2162 130.626 43.8984 132.766 42.2296Z" fill="#2475AE"/>
<path d="M152.796 4.11213C152.796 4.11213 164.68 -5.10806 173.27 4.06411C173.27 4.06411 172.363 7.22154 165.597 7.84582C161.426 8.242 158.26 7.37761 154.088 5.94896C151.455 5.04855 150.183 7.84582 149.275 9.43054L149.137 6.48921L150.262 5.21663L148.713 5.12058L147.905 1.08675C147.905 1.08675 150.646 5.76888 152.786 4.10012L152.796 4.11213Z" fill="#2475AE"/>
<path d="M191.476 29.4197C191.476 29.4197 203.36 20.1995 211.95 29.3837C211.95 29.3837 211.042 32.5411 204.277 33.1654C200.115 33.5616 196.949 32.6972 192.768 31.2685C190.144 30.3801 188.862 33.1774 187.965 34.7501L187.827 31.8088L188.951 30.5482L187.403 30.4522L186.594 26.4183C186.594 26.4183 189.346 31.1005 191.486 29.4317L191.476 29.4197Z" fill="#2475AE"/>
<path d="M90.0825 4.42424C90.0825 4.42424 101.976 -4.79598 110.556 4.38823C110.556 4.38823 109.639 7.54567 102.884 8.16996C98.7218 8.56614 95.556 7.70174 91.3745 6.27309C88.7511 5.37268 87.4789 8.16996 86.5617 9.75468L86.4236 6.81334L87.5479 5.54075L85.9996 5.44471L85.1909 1.41086C85.1909 1.41086 87.9325 6.10501 90.0726 4.42424H90.0825Z" fill="#2475AE"/>
<path d="M75.2991 32.6132C75.2991 32.6132 85.822 24.4614 93.4061 32.5772C93.4061 32.5772 92.5974 35.3744 86.6209 35.9387C82.9324 36.2869 80.1316 35.5185 76.4332 34.2579C74.1058 33.4776 72.9815 35.9507 72.1826 37.3434L72.0544 34.7382L73.0505 33.6216L71.6797 33.5376L70.9597 29.96C70.9597 29.96 73.3858 34.1019 75.2794 32.6252L75.2991 32.6132Z" fill="#2475AE"/>
<path d="M44.7756 27.1387C44.7756 27.1387 53.4543 20.4036 59.7267 27.1147C59.7267 27.1147 59.0659 29.4197 54.125 29.8879C51.0775 30.1761 48.7599 29.5398 45.7125 28.5073C43.7992 27.847 42.8623 29.8879 42.2016 31.0405L42.1029 28.8915L42.9215 27.9671L41.7873 27.895L41.1956 24.9417C41.1956 24.9417 43.2075 28.3632 44.7756 27.1387Z" fill="#2475AE"/>
<path d="M117.036 20.1395C117.036 20.1395 125.724 13.3923 131.997 20.1034C131.997 20.1034 131.326 22.4085 126.385 22.8767C123.338 23.1528 121.02 22.5286 117.973 21.4841C116.05 20.8358 115.123 22.8767 114.462 24.0292L114.363 21.8803L115.182 20.9558L114.048 20.8838L113.456 17.9304C113.456 17.9304 115.458 21.352 117.026 20.1274L117.036 20.1395Z" fill="#2475AE"/>
<path d="M31.5701 40.909C31.5701 40.909 40.2587 34.1739 46.5311 40.885C46.5311 40.885 45.8604 43.19 40.9195 43.6582C37.8721 43.9343 35.5544 43.3101 32.507 42.2656C30.5839 41.6173 29.6568 43.6582 28.9961 44.8108L28.9073 42.6618L29.7259 41.7373L28.5917 41.6773L28 38.724C28 38.724 30.002 42.1455 31.5701 40.921V40.909Z" fill="#2475AE"/>
<g clip-path="url(#clip0_219_83)">
<path d="M356.343 244.906C353.899 246.504 352.946 248.691 352.495 251.466C351.69 256.448 349.029 258.968 343.717 257.399C340.625 256.487 336.432 253.928 335.686 250.515C335.244 248.466 335.372 246.269 335.176 244.19C334.734 239.415 333.075 234.404 331.828 229.766C330.679 225.49 328.647 221.538 324.916 218.969C318.848 214.782 310.532 216.312 305.898 209.938C300.979 203.162 302.256 196.082 310.346 195.395C316.973 194.837 320.517 201.044 326.487 202.015C326.418 197.68 319.339 169.017 333.997 175.734C340.202 178.578 339.122 194.072 342.097 199.494C346.8 191.846 351.964 185.06 354.38 176.087C357.031 166.252 356.039 154.887 359.632 145.336C361.557 140.217 369.706 129.028 376.264 136.52C379.73 140.472 373.064 160.819 372.357 166.762C378.061 162.545 390.373 157.711 394.182 165.467C399.729 176.774 383.363 179.774 376.961 182.893C366.741 187.855 355.843 208.585 359.495 220.597C369.146 222.117 382.695 196.778 393.102 201.701C407.613 208.575 376.942 226.314 376.068 231.491C382.45 232.923 398.296 234.012 390.216 244.435C382.194 254.79 364.993 239.258 356.324 244.906H356.343Z" fill="#F49090"/>
<path d="M366.515 141.786C366.721 142.62 367.909 142.747 368.518 143.198C369.087 143.62 369.352 144.11 369.558 144.777C369.833 145.65 369.735 146.522 370.825 146.709C371.463 146.816 371.974 146.571 372.327 146.042C372.975 145.042 372.71 143.316 372.327 142.266C371.895 141.041 370.933 139.893 369.568 139.766C368.586 139.668 366.211 140.413 366.505 141.776V141.806L366.515 141.786Z" fill="#D86060"/>
<path d="M369.49 157.436C371.326 155.769 368.38 153.681 367.693 155.436C367.349 156.328 368.439 158.388 369.49 157.436Z" fill="#D86060"/>
<path d="M352.662 239.385C355.411 236.885 351.002 233.747 349.971 236.385C349.451 237.728 351.091 240.807 352.662 239.385Z" fill="#D86060"/>
<path d="M366.623 169.704C367.408 169.311 368.135 168.517 368.253 167.88C368.429 166.909 368.253 163.624 366.878 163.722C365.248 163.84 365.464 166.223 365.17 167.321C365.023 167.86 364.365 168.586 364.61 169.184C364.993 170.106 365.847 170.106 366.623 169.713V169.704Z" fill="#D86060"/>
<path d="M334.449 184.795C334.626 183.766 334.39 182.53 333.86 181.971C333.055 181.118 329.815 178.961 328.941 180.343C327.91 181.971 330.316 183.442 331.15 184.501C331.563 185.021 331.788 186.158 332.525 186.344C333.673 186.629 334.262 185.825 334.449 184.805V184.795Z" fill="#D86060"/>
<path d="M350.315 221.058C350.236 223.549 350.629 226.069 350.6 228.559C350.59 229.422 350.413 234.041 352.72 232.717C353.28 232.394 353.859 229.756 354.232 229.059C354.714 228.177 355.362 227.363 355.754 226.402C356.815 223.813 354.851 223.146 355.018 221.068C355.096 220.165 356.245 219.41 356.108 218.342C355.98 217.341 355.234 217.567 354.979 216.998C354.34 215.596 356.068 213.556 354.772 212.37C350.855 208.781 350.344 219.724 350.305 221.068L350.315 221.058Z" fill="#D86060"/>
<path d="M312.27 204.652C311.347 204.182 310.444 202.985 309.325 203.015C308.048 203.054 307.469 204.231 307.862 205.339C308.205 206.339 309.148 207.114 309.963 207.722C311.691 208.996 313.861 210.075 315.971 210.556C317.866 210.987 321.96 213.125 321.892 209.869C321.813 206.123 314.666 205.878 312.28 204.652H312.27Z" fill="#D86060"/>
<path d="M388.448 205.515C387.594 206.162 384.619 208.369 385.709 209.81C386.504 210.869 388.714 210.114 389.568 209.496C392.444 207.418 389.794 203.878 388.409 205.76" fill="#D86060"/>
<path d="M381.743 239.591C381.586 238.483 380.869 236.12 379.239 236.561C378.336 236.806 378.532 237.699 378.031 238.248C377.325 239.013 377.04 238.591 376.117 238.738C374.526 238.983 374.693 240.709 375.891 241.572C376.47 241.994 377.55 242.347 378.267 242.445C378.817 242.513 379.573 242.239 380.083 242.513C380.83 242.915 380.349 243.592 381.605 243.7C383.176 243.847 384.835 241.709 384.845 240.219C384.845 238.032 382.842 238.218 381.753 239.601L381.743 239.591Z" fill="#D86060"/>
<path d="M383.952 212.066C384.953 211.193 384.453 209.546 383.019 210.046C381.144 210.693 382.42 213.409 383.952 212.066Z" fill="#D86060"/>
<path d="M326.31 240.395C325.937 241.258 325.593 242.18 325.318 243.19C323.953 248.201 332.034 258.899 321.892 260.468C315.048 261.527 310.12 251.035 304.17 249.054C301.107 248.034 297.887 247.681 294.823 248.907C289.836 250.907 287.42 256.575 281.687 256.82C275.59 257.085 271.79 253.457 274.627 248.269C276.954 244.023 282.158 244.367 285.143 241.131C282.472 239.434 262.188 232.207 272.173 226.01C276.395 223.392 285.388 230.266 289.885 230.638C287.126 224.706 285.064 218.842 280.577 213.772C275.658 208.212 268.344 204.24 263.975 198.22C261.638 194.993 258.104 185.55 265.29 184.579C269.09 184.069 278.79 196.288 282.128 199.112C281.854 193.954 283.866 184.54 290.12 185.344C299.232 186.521 294.48 197.67 293.802 202.799C292.673 211.311 299.565 224.627 308.186 227.353C316.04 229.834 320.488 213.919 327.753 226.784C331.121 232.756 328.332 235.728 326.32 240.376L326.31 240.395Z" fill="#ED6E6E"/>
<path d="M264.564 192.65C265.153 192.866 265.703 192.189 266.223 192.003C266.704 191.826 267.117 191.865 267.608 192.003C268.246 192.179 268.746 192.601 269.286 192.003C269.61 191.659 269.669 191.248 269.483 190.826C269.139 190.032 267.981 189.502 267.185 189.306C266.272 189.08 265.182 189.198 264.554 189.973C264.103 190.532 263.602 192.267 264.554 192.64H264.574L264.564 192.65Z" fill="#BC5050"/>
<path d="M275.285 197.141C275.01 195.356 272.556 196.307 273.351 197.425C273.754 197.994 275.442 198.161 275.285 197.141Z" fill="#BC5050"/>
<path d="M322.785 245.269C322.373 242.602 318.681 244.014 319.879 245.69C320.488 246.544 323.021 246.789 322.785 245.269Z" fill="#BC5050"/>
<path d="M281.598 203.809C281.677 203.172 281.48 202.417 281.147 202.093C280.626 201.593 278.555 200.377 278.064 201.25C277.485 202.289 279.016 203.113 279.566 203.731C279.831 204.035 280.018 204.731 280.469 204.819C281.186 204.956 281.52 204.437 281.598 203.809Z" fill="#BC5050"/>
<path d="M277.848 229.403C277.298 228.883 276.444 228.53 275.894 228.628C275.059 228.775 272.438 229.873 272.929 230.962C273.508 232.246 275.364 231.374 276.346 231.285C276.827 231.246 277.612 231.56 278.015 231.187C278.653 230.609 278.398 229.922 277.848 229.403Z" fill="#BC5050"/>
<path d="M309.806 237.149C311.288 238.199 312.977 238.973 314.479 239.993C314.999 240.346 317.739 242.307 317.856 240.376C317.886 239.905 316.511 238.493 316.236 237.983C315.893 237.336 315.657 236.61 315.235 235.992C314.086 234.306 312.889 235.237 311.691 234.296C311.17 233.884 311.18 232.884 310.473 232.541C309.815 232.217 309.649 232.756 309.197 232.688C308.087 232.511 307.538 230.648 306.301 230.952C302.54 231.893 309.001 236.591 309.796 237.159L309.806 237.149Z" fill="#BC5050"/>
<path d="M281.019 250.848C280.361 251.221 279.271 251.29 278.839 251.976C278.349 252.761 278.839 253.584 279.664 253.8C280.41 253.986 281.264 253.731 281.962 253.476C283.434 252.937 284.956 252.064 286.105 250.976C287.126 249.995 290.081 248.377 288.059 247.103C285.751 245.641 282.727 249.887 281.019 250.839V250.848Z" fill="#BC5050"/>
<path d="M289.04 190.051C289.09 190.826 289.237 193.522 290.552 193.444C291.515 193.385 291.947 191.748 291.917 190.973C291.809 188.394 288.589 188.58 289.178 190.179" fill="#BC5050"/>
<path d="M291.21 195.415C291.083 194.454 289.875 194.091 289.6 195.17C289.247 196.572 291.407 196.886 291.21 195.415Z" fill="#BC5050"/>
<path d="M365.494 248.573C365.749 248.77 365.975 249.034 366.132 249.368C366.77 250.682 364.924 255.359 364.188 256.654C362.489 259.654 359.799 261.988 356.982 263.91C351.326 267.764 343.482 270.745 336.668 271.539C329.137 272.412 320.969 272.137 313.645 270.098C310.532 269.225 305.319 267.695 304.406 264.077C303.247 259.468 308.078 258.232 311.455 257.899C315.716 257.467 320.606 257.193 324.817 258.183C321.833 255.34 311.917 242.925 318.161 240.699C323.738 238.709 333.114 248.681 337.12 251.476C335.647 250.446 343.619 239.13 344.64 238.14C352.416 230.619 350.423 251.123 350.511 254.683C350.472 252.976 357.05 250.015 358.415 249.466C359.986 248.848 363.697 247.21 365.474 248.573H365.494Z" fill="#59EABD"/>
<path d="M350.884 261.361C354.419 258.948 358.003 257.183 360.948 254.006" stroke="#26BF8C" stroke-width="3" stroke-linecap="round" stroke-linejoin="round"/>
<path d="M342.048 259.399C344.031 255.751 344.905 249.505 344.748 245.426" stroke="#26BF8C" stroke-width="3" stroke-linecap="round" stroke-linejoin="round"/>
<path d="M325.848 250.574C328.323 253.986 331.405 256.997 333.948 260.38" stroke="#26BF8C" stroke-width="3" stroke-linecap="round" stroke-linejoin="round"/>
<path d="M315.539 265.038C320.144 264.94 324.7 265.665 329.285 265.528" stroke="#26BF8C" stroke-width="3" stroke-linecap="round" stroke-linejoin="round"/>
</g>
<g clip-path="url(#clip1_219_83)">
<path d="M87.1443 249.639C84.8164 256.694 80.1858 262.189 71.9746 263.458C52.1616 266.541 42.2551 241.225 35.7267 227.292C27.4144 209.552 23.4922 188.372 27.9457 169.058C31.5642 153.361 38.5354 141.458 39.5097 124.898C40.3826 109.975 35.2586 84.9887 42.0274 71.5375C51.9465 51.8049 74.9478 57.2996 83.1463 74.5069C92.8883 94.9755 84.4242 123.667 76.3775 143.565C70.7094 157.562 65.2058 170.086 68.8749 185.682C71.8481 198.346 82.9818 204.729 86.4611 216.683C88.9789 225.338 90.5983 239.195 87.157 249.626L87.1443 249.639Z" fill="#20BC8C"/>
<path d="M61.1445 233.358C61.1066 226.569 57.9183 219.615 55.4638 213.346C50.8964 201.659 47.202 190.327 48.366 177.599C49.6692 163.272 52.073 148.971 55.274 134.961C58.4243 121.218 62.764 107.412 64.3834 93.3766C64.5226 92.1203 64.0292 88.6814 65.3197 87.9073C66.9012 86.9556 68.179 99.0109 68.2549 100.318C68.7737 109.848 66.6102 119.15 64.3455 128.337C61.7392 138.933 59.8667 149.567 58.0448 160.315C56.6404 168.589 54.9071 176.952 55.4385 185.39C55.9572 193.512 58.7406 201.278 62.0048 208.663C65.0287 215.49 68.2549 222.241 71.2028 229.081C72.9994 233.243 74.9731 242.139 70.1148 245.058C63.3206 249.131 61.1698 237.989 61.1445 233.37V233.358Z" fill="#1A996F"/>
<path d="M101.897 265.387C80.4008 271.719 73.7712 248.395 72.4807 232.558C71.3547 218.701 75.4665 205.009 83.0957 193.499C87.0305 187.56 90.3453 182.116 89.3837 174.502C86.9419 155.1 62.0555 120.114 85.1833 105.571C120.153 83.6055 126.783 147.892 125.568 169.198C125.126 176.913 121.925 184.07 121.077 191.684C120.153 200.047 123.19 205.3 125.113 213.041C129.794 231.974 122.216 259.384 101.884 265.374L101.897 265.387Z" fill="#59EABD"/>
<path d="M51.7567 273.927C51.2633 274.308 50.7066 274.65 50.074 274.942C45.3042 270.919 46.1519 258.991 44.5957 253.306C40.585 238.687 31.3364 230.299 21.1263 219.412C19.3677 217.533 15.0154 213.726 16.9764 211.112C24.7321 213.003 32.6649 218.65 38.915 223.523C45.8862 228.954 54.7426 235.693 57.9562 244.258C60.0185 249.727 57.6399 252.1 56.2355 257.1C54.7299 262.443 56.5898 270.145 51.7567 273.927Z" fill="#59EABD"/>
<path d="M54.945 275.703C54.692 276.274 54.3504 276.833 53.9329 277.391C47.8346 276.046 43.0648 265.095 39.0415 260.793C28.7175 249.727 16.6348 246.606 2.55319 241.733C0.124015 240.895 -5.49346 239.55 -4.96208 236.327C2.78093 234.385 12.4217 235.68 20.2154 237.076C28.9073 238.637 39.8639 240.464 46.6833 246.555C51.0356 250.438 50.0361 253.636 51.1115 258.724C52.2502 264.156 57.4754 270.12 54.945 275.716V275.703Z" fill="#59EABD"/>
<path d="M50.947 267.303C50.365 267.506 49.7198 267.658 49.0239 267.734C45.7724 262.392 50.3524 251.364 50.6813 245.464C51.5037 230.325 45.3928 219.424 39.1554 205.846C38.08 203.499 35.17 198.511 37.8522 196.659C44.6084 200.923 50.3397 208.803 54.73 215.414C59.6263 222.787 65.889 231.987 66.2306 241.136C66.4457 246.974 63.4472 248.471 60.5246 252.76C57.4122 257.341 56.729 265.247 50.947 267.29V267.303Z" fill="#59EABD"/>
<path d="M70.7473 266.503C70.8992 267.1 71.0004 267.747 71.0257 268.458C65.4588 271.275 54.8691 265.793 49.0365 264.981C34.0693 262.925 22.7331 268.14 8.72734 273.254C6.31081 274.143 1.11085 276.642 -0.508606 273.813C4.28649 267.404 12.5735 262.316 19.5068 258.471C27.2245 254.182 36.8906 248.674 46.0127 249.08C51.8326 249.334 53.0725 252.456 57.0959 255.73C61.3975 259.219 69.1911 260.552 70.7473 266.491V266.503Z" fill="#59EABD"/>
<path d="M96.9623 129.225C96.7978 129.01 96.608 128.845 96.4182 128.768C93.7866 127.741 94.5331 132.816 94.7102 134.035C95.2669 137.715 96.6839 141.433 97.0635 145.176C97.4936 149.351 98.1642 153.564 98.6956 157.739C99.518 164.211 100.353 170.708 100.366 177.243C100.366 187.078 96.6713 195.491 94.0144 204.768C91.8888 212.153 91.3448 220.312 92.1419 227.926C92.7365 233.561 93.3564 238.992 95.6971 244.195C96.937 246.936 98.5058 248.788 99.7963 245.07C100.821 242.126 98.9739 239.284 98.4679 236.454C97.8099 232.761 97.5949 228.789 97.2786 225.084C95.7983 208.194 105.73 193.562 106.375 177.04C106.818 165.823 105.49 153.729 102.352 142.994C101.593 140.405 100.758 137.829 99.771 135.316C99.2776 134.073 98.7589 132.855 98.1769 131.649C97.9112 131.116 97.4936 129.91 96.9623 129.225Z" fill="#38CE9C"/>
<path d="M121.899 248.75C120.343 246.898 118.294 245.349 115.75 244.334C107.16 240.895 97.1774 245.159 88.1945 242.837C81.7546 241.187 78.4651 237.469 70.8359 238.104C61.9163 238.84 51.9465 242.672 46.6454 249.93C43.1028 254.778 37.2955 266.389 40.8128 272.315C43.4318 276.719 57.0453 281.541 62.0934 282.645C70.216 284.409 78.0729 279.066 86.3473 277.15C97.6202 274.536 141.13 271.782 121.899 248.738V248.75Z" fill="#49290E"/>
<path d="M63.346 244.943C62.0048 244.766 60.5499 244.778 59.2214 244.943C57.7917 245.108 56.4886 246.022 55.3499 246.847C53.9582 247.849 52.7183 249.055 51.5796 250.337C50.4915 251.555 47.3032 254.867 47.8599 256.808C48.3281 258.458 51.4784 258.141 52.9334 258.23C55.274 258.382 55.5017 257.417 57.1465 255.539C58.8798 253.547 60.6384 251.644 62.4097 249.702C62.979 249.08 65.1046 247.532 65.2184 246.656C65.3703 245.502 64.2948 245.07 63.346 244.943Z" fill="#774623"/>
<path d="M49.5174 268.178C50.947 267.658 53.2117 263.508 50.7952 263.014C50.2385 262.899 49.6565 262.874 49.0872 262.849C48.0624 262.811 46.8351 262.722 45.8483 263.102C44.7349 263.521 43.3558 266.072 43.8366 267.189C44.3807 268.445 48.3534 268.61 49.5047 268.178H49.5174Z" fill="#774623"/>
</g>
<path d="M298.519 76.1399C298.812 75.8459 298.97 75.2419 298.931 74.1771C298.82 70.6884 297.552 67.3587 297.029 63.9256C296.91 63.1628 296.95 62.0422 297.187 61.3429C298.598 57.1629 306.347 59.7138 309.207 60.3893C317.241 62.2727 326.939 65.674 332.984 71.499C336.027 74.4314 338.539 77.8644 341.098 81.2021C343.284 84.055 343.689 87.6549 346.707 90.0628C348.229 91.2707 351.231 91.9542 350.986 94.5369C350.708 97.5328 346.375 96.2931 344.299 96.4839C340.44 96.8415 338.158 100.052 335.06 101.84C330.901 104.232 326.337 106.457 321.892 108.253C316.845 110.288 302.623 113.697 297.821 108.762C294.779 105.639 299.406 100.1 299.168 96.2534C298.946 92.6535 294.589 95.8958 292.703 95.562C288.749 94.8627 289.447 87.8139 289.241 84.8735C289.019 81.7663 287.902 73.1519 293.448 74.3757C295.254 74.7731 297.584 77.0856 298.519 76.1479V76.1399Z" fill="#FFD503"/>
<path d="M302.068 72.2221C301.799 71.6659 301.632 70.903 301.521 70.442C301.252 69.3215 301.173 68.1693 300.872 67.0567C300.507 65.6819 300.246 64.1005 300.911 62.7733C301.981 60.6277 307.464 62.0422 309.334 62.6065C312.812 63.6554 316.132 65.213 319.483 66.5481C320.759 67.0567 322.098 67.6289 323.223 68.4394C323.817 68.8606 327.042 70.6248 325.513 71.642C324.903 72.0473 323.635 71.34 323.041 71.1732C319.737 70.2354 315.886 69.4646 312.44 69.9573C310.197 70.2752 307.987 70.9506 305.99 72.0235C305.071 72.5162 303.431 73.6685 302.441 72.7705C302.298 72.6433 302.179 72.4526 302.068 72.2301V72.2221Z" fill="#49290E"/>
<path d="M296.213 88.3145C295.104 88.2748 294.018 88.5847 292.909 88.5767" stroke="#49290E" stroke-width="2" stroke-linecap="round" stroke-linejoin="round"/>
<path d="M296.609 81.6948C295.516 81.4802 294.391 81.4246 293.305 81.0352" stroke="#49290E" stroke-width="2" stroke-linecap="round" stroke-linejoin="round"/>
<path d="M335.163 87.7979C335.163 89.2602 336.344 90.4442 337.802 90.4442C339.26 90.4442 340.44 89.2602 340.44 87.7979C340.44 86.3357 339.26 85.1516 337.802 85.1516C336.344 85.1516 335.163 86.3357 335.163 87.7979Z" fill="#49290E"/>
<path d="M301.506 108.15C301.038 107.808 300.682 107.347 300.484 106.727C299.992 105.194 300.182 103.215 300.927 101.792C301.981 99.7897 304.041 100.712 305.744 101.165C307.361 101.594 309.041 102.214 310.673 102.476C312.677 102.802 314.682 103.024 316.71 103.167C318.572 103.302 320.6 103.016 322.407 103.549C324.388 104.129 322.573 105.384 321.274 105.964C318.762 107.093 316.385 107.903 313.644 108.356C311.513 108.706 309.373 109.127 307.202 109.135C305.531 109.135 302.995 109.254 301.514 108.158L301.506 108.15Z" fill="#49290E"/>
<path d="M322.312 78.8498C323.619 79.1439 324.879 79.6048 326.163 79.9624C326.994 80.1929 327.779 80.177 328.04 79.1916C328.611 77.0539 324.998 76.4976 323.627 76.2353C321.226 75.7744 318.77 75.7347 316.33 75.6155C313.208 75.4645 310.031 75.4645 306.981 76.1956C306.109 76.4022 305.119 76.6406 304.366 77.1413C304.089 77.324 303.613 77.626 303.74 78.0313C303.93 78.6273 305.166 78.2538 305.586 78.1823C306.458 78.0393 307.337 77.9677 308.217 77.9201C309.936 77.8406 311.655 77.8962 313.375 77.9042C316.369 77.928 319.38 78.1744 322.312 78.8419V78.8498Z" fill="#FFAC06"/>
<path d="M321.234 94.2429C322.565 94.1316 323.881 93.8535 325.204 93.6866C326.06 93.5753 326.828 93.7025 326.955 94.7197C327.224 96.913 323.564 96.9527 322.169 97.0163C319.729 97.1276 317.289 96.8256 314.864 96.5951C311.758 96.3011 308.605 95.8561 305.689 94.6958C304.857 94.3621 303.914 93.9886 303.233 93.3925C302.987 93.178 302.559 92.8045 302.742 92.423C303.011 91.8588 304.184 92.4071 304.596 92.5343C305.436 92.7965 306.299 92.9952 307.163 93.1621C308.85 93.4879 310.562 93.6786 312.265 93.9091C315.236 94.3144 318.247 94.4892 321.242 94.2508L321.234 94.2429Z" fill="#FFAC06"/>
<path d="M303.803 84.8656C303.074 83.7769 304.413 83.7133 305.103 83.7371C306.434 83.7769 307.805 83.7371 309.136 83.7371C313.232 83.7371 317.312 83.6974 321.377 84.047C322.351 84.1345 323.477 84.1901 324.411 84.4762C325.125 84.6987 326.194 85.5411 326.052 86.4232C325.854 87.6946 324.356 87.5993 323.429 87.647C320.545 87.79 317.637 87.8536 314.753 87.7105C312.115 87.5754 308.906 87.5278 306.41 86.5344C305.523 86.1847 304.342 85.692 303.787 84.8656H303.803Z" fill="#FFAC06"/>
<defs>
<clipPath id="clip0_219_83">
<rect width="136" height="138" fill="white" transform="translate(261 134)"/>
</clipPath>
<clipPath id="clip1_219_83">
<rect width="205" height="224" fill="white" transform="translate(-5 59)"/>
</clipPath>
</defs>
</svg>
