<svg width="129" height="131" viewBox="0 0 129 131" fill="none" xmlns="http://www.w3.org/2000/svg">
<g clip-path="url(#clip0_6_332)">
<path d="M95.3433 110.906C92.8986 112.504 91.9463 114.691 91.4947 117.466C90.6896 122.448 88.0289 124.968 82.7173 123.399C79.6246 122.487 75.4323 119.928 74.6861 116.515C74.2443 114.466 74.3719 112.269 74.1756 110.19C73.7338 105.415 72.0745 100.404 70.8276 95.7655C69.6789 91.4901 67.6465 87.5383 63.9157 84.9691C57.8481 80.7819 49.5322 82.3117 44.8981 75.9378C39.9792 69.1618 41.2556 62.0819 49.3457 61.3954C55.9729 60.8365 59.5172 67.0437 65.4866 68.0145C65.4178 63.6802 58.339 35.0173 72.9974 41.7344C79.2024 44.5781 78.1224 60.0716 81.0973 65.4944C85.8002 57.8457 90.9645 51.0599 93.3797 42.0874C96.0306 32.252 95.039 20.8868 98.6324 11.3358C100.557 6.21702 108.706 -4.97164 115.264 2.52015C118.73 6.47197 112.064 26.8194 111.357 32.7619C117.061 28.5453 129.373 23.7109 133.182 31.4675C138.729 42.7738 122.363 45.7745 115.961 48.8928C105.741 53.8546 94.8426 74.5845 98.4949 86.5969C108.146 88.1168 121.695 62.7781 132.102 67.7007C146.613 74.5747 115.942 92.3138 115.068 97.4914C121.45 98.923 137.296 100.012 129.216 110.435C121.194 120.79 103.993 105.258 95.3237 110.906H95.3433Z" fill="#F49090"/>
<path d="M105.515 7.78599C105.721 8.6195 106.909 8.74698 107.518 9.19806C108.087 9.61971 108.352 10.11 108.558 10.7768C108.833 11.6496 108.735 12.5223 109.825 12.7086C110.463 12.8165 110.974 12.5713 111.327 12.0418C111.975 11.0416 111.71 9.31573 111.327 8.26648C110.895 7.04073 109.933 5.89343 108.568 5.76595C107.586 5.66789 105.211 6.41315 105.505 7.77618V7.8056L105.515 7.78599Z" fill="#D86060"/>
<path d="M108.49 23.4364C110.326 21.7694 107.38 19.6807 106.693 21.436C106.349 22.3283 107.439 24.3876 108.49 23.4364Z" fill="#D86060"/>
<path d="M91.6616 105.385C94.4106 102.885 90.0023 99.7467 88.9714 102.385C88.4511 103.728 90.0907 106.807 91.6616 105.385Z" fill="#D86060"/>
<path d="M105.623 35.7037C106.408 35.3115 107.135 34.5172 107.253 33.8798C107.429 32.909 107.253 29.624 105.878 29.722C104.248 29.8397 104.464 32.2226 104.17 33.3208C104.023 33.8602 103.365 34.5858 103.61 35.184C103.993 36.1057 104.847 36.1057 105.623 35.7135V35.7037Z" fill="#D86060"/>
<path d="M73.449 50.7951C73.6258 49.7655 73.3901 48.5299 72.8599 47.971C72.0549 47.1179 68.8149 44.9606 67.9411 46.3432C66.9102 47.971 69.3156 49.4419 70.1502 50.501C70.5625 51.0207 70.7883 52.1582 71.5247 52.3445C72.6734 52.6289 73.2625 51.8248 73.449 50.8049V50.7951Z" fill="#D86060"/>
<path d="M89.315 87.0578C89.2365 89.5485 89.6292 92.0687 89.5998 94.5594C89.5899 95.4223 89.4132 100.041 91.7205 98.7171C92.2801 98.3935 92.8594 95.7557 93.2325 95.0595C93.7135 94.177 94.3615 93.3631 94.7543 92.4021C95.8146 89.8133 93.851 89.1465 94.0179 87.0676C94.0964 86.1654 95.2452 85.4104 95.1077 84.3415C94.9801 83.3413 94.2339 83.5669 93.9786 82.9981C93.3405 81.5958 95.0684 79.5562 93.7724 78.3697C89.855 74.7807 89.3445 85.7242 89.3052 87.0676L89.315 87.0578Z" fill="#D86060"/>
<path d="M51.27 70.6523C50.3471 70.1816 49.4438 68.9853 48.3246 69.0147C47.0482 69.0539 46.4689 70.2307 46.8617 71.3388C47.2053 72.339 48.1478 73.1136 48.9627 73.7216C50.6907 74.9964 52.8605 76.0751 54.9714 76.5556C56.8663 76.987 60.9604 79.1247 60.8917 75.8691C60.8132 72.1232 53.6656 71.8781 51.2798 70.6523H51.27Z" fill="#D86060"/>
<path d="M127.448 71.5152C126.594 72.1624 123.619 74.3688 124.709 75.8103C125.504 76.8693 127.714 76.1143 128.568 75.4965C131.444 73.4176 128.794 69.8776 127.409 71.7604" fill="#D86060"/>
<path d="M120.743 105.591C120.586 104.483 119.869 102.12 118.239 102.561C117.336 102.806 117.532 103.699 117.031 104.248C116.325 105.013 116.04 104.591 115.117 104.738C113.526 104.983 113.693 106.709 114.891 107.572C115.47 107.994 116.55 108.347 117.267 108.445C117.817 108.513 118.573 108.239 119.083 108.513C119.83 108.915 119.349 109.592 120.605 109.7C122.176 109.847 123.835 107.709 123.845 106.219C123.845 104.032 121.842 104.218 120.753 105.601L120.743 105.591Z" fill="#D86060"/>
<path d="M122.952 78.0656C123.953 77.1929 123.453 75.5455 122.019 76.0456C120.144 76.6928 121.42 79.4091 122.952 78.0656Z" fill="#D86060"/>
<path d="M65.3098 106.395C64.9367 107.258 64.5931 108.18 64.3182 109.19C62.9535 114.201 71.0338 124.899 60.8917 126.468C54.0485 127.527 49.1198 117.035 43.1701 115.054C40.1068 114.034 36.8865 113.681 33.8233 114.907C28.8357 116.907 26.4204 122.575 20.6867 122.82C14.5896 123.085 10.7901 119.457 13.6275 114.269C15.9544 110.023 21.1579 110.367 24.1426 107.131C21.4721 105.434 1.18798 98.2072 11.173 92.0098C15.3947 89.3916 24.3881 96.2656 28.8848 96.6383C26.1259 90.7056 24.0641 84.8416 19.5772 79.7719C14.6584 74.2119 7.34391 70.2405 2.97487 64.2196C0.638163 60.9934 -2.89634 51.5502 4.29049 50.5794C8.09008 50.0695 17.7903 62.2878 21.1285 65.1119C20.8536 59.954 22.8663 50.5402 29.1204 51.3443C38.2316 52.521 33.4796 63.6704 32.8022 68.799C31.6731 77.3106 38.5654 90.6272 47.1857 93.3532C55.0401 95.8342 59.4877 79.919 66.7531 92.7845C70.1207 98.7564 67.3324 101.728 65.3196 106.376L65.3098 106.395Z" fill="#ED6E6E"/>
<path d="M3.56396 58.6498C4.15304 58.8655 4.70286 58.1889 5.22321 58.0026C5.7043 57.8261 6.11666 57.8653 6.60756 58.0026C7.24574 58.1791 7.74646 58.6007 8.28645 58.0026C8.61045 57.6594 8.66936 57.2475 8.48282 56.8259C8.13918 56.0316 6.98065 55.502 6.18539 55.3059C5.2723 55.0804 4.1825 55.1981 3.55414 55.9727C3.10251 56.5317 2.60179 58.2673 3.55414 58.64H3.57378L3.56396 58.6498Z" fill="#BC5050"/>
<path d="M14.2853 63.1409C14.0104 61.3562 11.5559 62.3074 12.3511 63.4253C12.7537 63.994 14.4424 64.1607 14.2853 63.1409Z" fill="#BC5050"/>
<path d="M61.7851 111.269C61.3728 108.602 57.6812 110.014 58.879 111.69C59.4877 112.544 62.0208 112.789 61.7851 111.269Z" fill="#BC5050"/>
<path d="M20.5983 69.809C20.6769 69.1716 20.4805 68.4165 20.1467 68.0929C19.6263 67.5928 17.5547 66.3769 17.0638 67.2496C16.4845 68.2891 18.0162 69.1128 18.566 69.7305C18.8311 70.0345 19.0176 70.7308 19.4692 70.819C20.186 70.9563 20.5198 70.4366 20.5983 69.809Z" fill="#BC5050"/>
<path d="M16.8478 95.4027C16.298 94.883 15.4438 94.5299 14.894 94.628C14.0595 94.7751 11.4381 95.8734 11.929 96.9618C12.5082 98.2464 14.3638 97.3737 15.3456 97.2854C15.8267 97.2462 16.6122 97.56 17.0147 97.1874C17.6529 96.6088 17.3976 95.9224 16.8478 95.4027Z" fill="#BC5050"/>
<path d="M48.8056 103.149C50.2882 104.199 51.9769 104.973 53.4791 105.993C53.9994 106.346 56.7387 108.307 56.8565 106.376C56.8859 105.905 55.5114 104.493 55.2365 103.983C54.8929 103.336 54.6572 102.61 54.235 101.992C53.0863 100.306 51.8885 101.237 50.6907 100.296C50.1704 99.8841 50.1802 98.8838 49.4733 98.5406C48.8155 98.217 48.6486 98.7564 48.1969 98.6877C47.0875 98.5112 46.5377 96.6481 45.3006 96.9521C41.5403 97.8934 48.0006 102.591 48.7958 103.159L48.8056 103.149Z" fill="#BC5050"/>
<path d="M20.019 116.848C19.3612 117.221 18.2714 117.29 17.8394 117.976C17.3485 118.761 17.8394 119.584 18.6641 119.8C19.4103 119.986 20.2645 119.731 20.9616 119.476C22.4343 118.937 23.9561 118.064 25.1048 116.976C26.1259 115.995 29.0811 114.377 27.0586 113.103C24.7514 111.641 21.7274 115.887 20.019 116.839V116.848Z" fill="#BC5050"/>
<path d="M28.0404 56.0512C28.0895 56.8258 28.2368 59.5225 29.5524 59.444C30.5146 59.3852 30.9466 57.7476 30.9171 56.9729C30.8091 54.3939 27.5888 54.5803 28.1779 56.1786" fill="#BC5050"/>
<path d="M30.2102 61.4151C30.0826 60.4541 28.875 60.0912 28.6001 61.1699C28.2466 62.5722 30.4066 62.8859 30.2102 61.4151Z" fill="#BC5050"/>
<path d="M104.494 114.573C104.749 114.77 104.975 115.034 105.132 115.368C105.77 116.682 103.924 121.359 103.188 122.654C101.489 125.654 98.7993 127.988 95.9815 129.91C90.3263 133.764 82.4817 136.745 75.6679 137.539C68.1374 138.412 59.9688 138.137 52.6445 136.098C49.5322 135.225 44.3188 133.695 43.4057 130.077C42.2472 125.468 47.0777 124.232 50.4551 123.899C54.7161 123.467 59.6055 123.193 63.8175 124.183C60.8328 121.34 50.9165 108.925 57.1608 106.699C62.7375 104.709 72.1138 114.681 76.1195 117.476C74.6468 116.446 82.6191 105.13 83.6402 104.14C91.4161 96.6186 89.423 117.123 89.5114 120.683C89.4721 118.976 96.0502 116.015 97.4149 115.466C98.9858 114.848 102.697 113.21 104.474 114.573H104.494Z" fill="#59EABD"/>
<path d="M89.8845 127.361C93.419 124.948 97.0026 123.183 99.948 120.006" stroke="#26BF8C" stroke-width="3" stroke-linecap="round" stroke-linejoin="round"/>
<path d="M81.0482 125.399C83.0315 121.751 83.9053 115.505 83.7482 111.426" stroke="#26BF8C" stroke-width="3" stroke-linecap="round" stroke-linejoin="round"/>
<path d="M64.8484 116.574C67.3225 119.986 70.4054 122.997 72.9483 126.38" stroke="#26BF8C" stroke-width="3" stroke-linecap="round" stroke-linejoin="round"/>
<path d="M54.5394 131.038C59.1441 130.94 63.6997 131.665 68.2847 131.528" stroke="#26BF8C" stroke-width="3" stroke-linecap="round" stroke-linejoin="round"/>
</g>
<defs>
<clipPath id="clip0_6_332">
<rect width="136" height="138" fill="white"/>
</clipPath>
</defs>
</svg>
