<svg width="323" height="112" viewBox="0 0 323 112" fill="none" xmlns="http://www.w3.org/2000/svg">
<path d="M104.766 42.2296C104.766 42.2296 116.66 33.0094 125.24 42.1936C125.24 42.1936 124.333 45.351 117.567 45.9753C113.396 46.3595 110.24 45.5071 106.058 44.0785C103.435 43.178 102.163 45.9753 101.255 47.56L101.117 44.6187L102.241 43.3581L100.693 43.2621L99.8843 39.2162C99.8843 39.2162 102.626 43.8984 104.766 42.2296V42.2296Z" fill="#2475AE"/>
<path d="M124.796 4.11213C124.796 4.11213 136.68 -5.10806 145.27 4.06411C145.27 4.06411 144.363 7.22154 137.597 7.84582C133.426 8.242 130.26 7.37761 126.088 5.94896C123.455 5.04855 122.183 7.84582 121.275 9.43054L121.137 6.48921L122.262 5.21663L120.713 5.12058L119.905 1.08675C119.905 1.08675 122.646 5.76888 124.786 4.10012L124.796 4.11213Z" fill="#2475AE"/>
<path d="M163.476 29.4197C163.476 29.4197 175.36 20.1995 183.95 29.3837C183.95 29.3837 183.042 32.5411 176.277 33.1654C172.115 33.5616 168.949 32.6972 164.768 31.2685C162.144 30.3801 160.862 33.1774 159.965 34.7501L159.827 31.8088L160.951 30.5482L159.403 30.4522L158.594 26.4183C158.594 26.4183 161.346 31.1005 163.486 29.4317L163.476 29.4197Z" fill="#2475AE"/>
<path d="M62.0825 4.42424C62.0825 4.42424 73.9763 -4.79598 82.5564 4.38823C82.5564 4.38823 81.6393 7.54567 74.8836 8.16996C70.7218 8.56614 67.556 7.70174 63.3745 6.27309C60.7511 5.37268 59.4789 8.16996 58.5617 9.75468L58.4236 6.81334L59.5479 5.54076L57.9996 5.44471L57.1909 1.41086C57.1909 1.41086 59.9325 6.10501 62.0726 4.42424H62.0825Z" fill="#2475AE"/>
<path d="M47.2991 32.6132C47.2991 32.6132 57.822 24.4614 65.4061 32.5772C65.4061 32.5772 64.5974 35.3744 58.6209 35.9387C54.9324 36.2869 52.1316 35.5185 48.4332 34.2579C46.1058 33.4776 44.9815 35.9507 44.1826 37.3434L44.0544 34.7382L45.0505 33.6216L43.6797 33.5376L42.9597 29.96C42.9597 29.96 45.3858 34.1019 47.2794 32.6252L47.2991 32.6132Z" fill="#2475AE"/>
<path d="M16.7756 27.1387C16.7756 27.1387 25.4543 20.4036 31.7267 27.1147C31.7267 27.1147 31.0659 29.4197 26.125 29.8879C23.0775 30.1761 20.7599 29.5398 17.7125 28.5073C15.7992 27.847 14.8623 29.8879 14.2016 31.0405L14.1029 28.8915L14.9215 27.9671L13.7873 27.895L13.1956 24.9417C13.1956 24.9417 15.2075 28.3632 16.7756 27.1387V27.1387Z" fill="#2475AE"/>
<path d="M89.0359 20.1395C89.0359 20.1395 97.7245 13.3923 103.997 20.1034C103.997 20.1034 103.326 22.4085 98.3853 22.8767C95.3379 23.1528 93.0202 22.5286 89.9728 21.4841C88.0497 20.8358 87.1226 22.8767 86.4619 24.0292L86.3633 21.8803L87.1818 20.9558L86.0477 20.8838L85.4559 17.9304C85.4559 17.9304 87.458 21.352 89.026 20.1274L89.0359 20.1395Z" fill="#2475AE"/>
<path d="M3.57011 40.909C3.57011 40.909 12.2587 34.1739 18.5311 40.885C18.5311 40.885 17.8604 43.19 12.9195 43.6582C9.87206 43.9343 7.55444 43.3101 4.50702 42.2656C2.5839 41.6173 1.65685 43.6582 0.996082 44.8107L0.907322 42.6618L1.72588 41.7373L0.591732 41.6773L0 38.724C0 38.724 2.00203 42.1455 3.57011 40.921V40.909Z" fill="#2475AE"/>
<path d="M270.519 76.1399C270.812 75.8459 270.97 75.2419 270.931 74.1771C270.82 70.6884 269.552 67.3587 269.029 63.9256C268.91 63.1628 268.95 62.0422 269.187 61.3429C270.598 57.1629 278.347 59.7138 281.207 60.3893C289.241 62.2727 298.939 65.674 304.984 71.499C308.027 74.4314 310.539 77.8644 313.098 81.2021C315.284 84.055 315.689 87.6549 318.707 90.0628C320.229 91.2707 323.231 91.9542 322.986 94.5369C322.708 97.5328 318.375 96.2931 316.299 96.4839C312.44 96.8415 310.158 100.052 307.06 101.84C302.901 104.232 298.337 106.457 293.892 108.253C288.845 110.288 274.623 113.697 269.821 108.762C266.779 105.639 271.406 100.1 271.168 96.2534C270.946 92.6535 266.589 95.8958 264.703 95.562C260.749 94.8627 261.447 87.8139 261.241 84.8735C261.019 81.7663 259.902 73.1519 265.448 74.3757C267.254 74.7731 269.584 77.0856 270.519 76.1479V76.1399Z" fill="#FFD503"/>
<path d="M274.068 72.2221C273.799 71.6659 273.632 70.903 273.521 70.442C273.252 69.3215 273.173 68.1693 272.872 67.0567C272.507 65.6819 272.246 64.1005 272.911 62.7733C273.981 60.6277 279.464 62.0422 281.334 62.6065C284.812 63.6554 288.132 65.213 291.483 66.5481C292.759 67.0567 294.098 67.6289 295.223 68.4394C295.817 68.8606 299.042 70.6248 297.513 71.642C296.903 72.0473 295.635 71.34 295.041 71.1732C291.737 70.2354 287.886 69.4646 284.44 69.9573C282.197 70.2752 279.987 70.9506 277.99 72.0235C277.071 72.5162 275.431 73.6685 274.441 72.7705C274.298 72.6433 274.179 72.4526 274.068 72.2301V72.2221Z" fill="#49290E"/>
<path d="M268.213 88.3145C267.104 88.2748 266.018 88.5847 264.909 88.5767" stroke="#49290E" stroke-width="2" stroke-linecap="round" stroke-linejoin="round"/>
<path d="M268.609 81.6948C267.516 81.4802 266.391 81.4246 265.305 81.0352" stroke="#49290E" stroke-width="2" stroke-linecap="round" stroke-linejoin="round"/>
<path d="M307.163 87.7979C307.163 89.2602 308.344 90.4442 309.802 90.4442C311.26 90.4442 312.44 89.2602 312.44 87.7979C312.44 86.3357 311.26 85.1516 309.802 85.1516C308.344 85.1516 307.163 86.3357 307.163 87.7979Z" fill="#49290E"/>
<path d="M273.506 108.15C273.038 107.808 272.682 107.347 272.484 106.727C271.992 105.194 272.182 103.215 272.927 101.792C273.981 99.7897 276.041 100.712 277.744 101.165C279.361 101.594 281.041 102.214 282.673 102.476C284.677 102.802 286.682 103.024 288.71 103.167C290.572 103.302 292.6 103.016 294.407 103.549C296.388 104.129 294.573 105.384 293.274 105.964C290.762 107.093 288.385 107.903 285.644 108.356C283.513 108.706 281.373 109.127 279.202 109.135C277.531 109.135 274.995 109.254 273.514 108.158L273.506 108.15Z" fill="#49290E"/>
<path d="M294.312 78.8498C295.619 79.1439 296.879 79.6048 298.163 79.9624C298.994 80.1929 299.779 80.177 300.04 79.1916C300.611 77.0539 296.998 76.4976 295.627 76.2353C293.226 75.7744 290.77 75.7347 288.33 75.6155C285.208 75.4645 282.031 75.4645 278.981 76.1956C278.109 76.4022 277.119 76.6406 276.366 77.1413C276.089 77.324 275.613 77.626 275.74 78.0313C275.93 78.6273 277.166 78.2538 277.586 78.1823C278.458 78.0393 279.337 77.9677 280.217 77.9201C281.936 77.8406 283.655 77.8962 285.375 77.9042C288.369 77.928 291.38 78.1744 294.312 78.8419V78.8498Z" fill="#FFAC06"/>
<path d="M293.234 94.2429C294.565 94.1316 295.881 93.8535 297.204 93.6866C298.06 93.5753 298.828 93.7025 298.955 94.7197C299.224 96.913 295.564 96.9527 294.169 97.0163C291.729 97.1276 289.289 96.8256 286.864 96.5951C283.758 96.3011 280.605 95.8561 277.689 94.6958C276.857 94.3621 275.914 93.9886 275.233 93.3925C274.987 93.178 274.559 92.8045 274.742 92.423C275.011 91.8588 276.184 92.4071 276.596 92.5343C277.436 92.7965 278.299 92.9952 279.163 93.1621C280.85 93.4879 282.562 93.6786 284.265 93.9091C287.236 94.3144 290.247 94.4892 293.242 94.2508L293.234 94.2429Z" fill="#FFAC06"/>
<path d="M275.803 84.8656C275.074 83.7769 276.413 83.7133 277.103 83.7371C278.434 83.7769 279.805 83.7371 281.136 83.7371C285.232 83.7371 289.312 83.6974 293.377 84.047C294.351 84.1345 295.477 84.1901 296.411 84.4762C297.125 84.6987 298.194 85.5411 298.052 86.4232C297.854 87.6946 296.356 87.5993 295.429 87.647C292.545 87.79 289.637 87.8536 286.753 87.7105C284.115 87.5754 280.906 87.5278 278.41 86.5344C277.523 86.1847 276.342 85.692 275.787 84.8656H275.803Z" fill="#FFAC06"/>
</svg>
