<svg width="22" height="22" viewBox="0 0 22 22" fill="none" xmlns="http://www.w3.org/2000/svg">
<path d="M19.2121 7.95341L17.3274 6.81936L11.1636 3.10503C10.9295 2.96499 10.6379 2.96499 10.4038 3.10503L4.23999 6.81707L2.35528 7.95341C2.00864 8.16231 1.89615 8.61455 2.10505 8.96349C2.24279 9.19305 2.48613 9.31931 2.73635 9.31931C2.86491 9.31931 2.99576 9.28487 3.11513 9.21371L3.88417 8.74999V18.2631C3.88417 18.6694 4.21474 19 4.62107 19H16.9486C17.355 19 17.6855 18.6694 17.6855 18.2631V8.75229L18.4546 9.21601C18.8035 9.42491 19.2557 9.31242 19.4646 8.96578C19.6735 8.61684 19.5611 8.1646 19.2144 7.9557L19.2121 7.95341ZM9.33401 17.5285V14.31C9.33401 13.5111 9.98367 12.8592 10.7848 12.8592C11.586 12.8592 12.2357 13.5088 12.2357 14.31V17.5285H9.33401V17.5285ZM16.2117 17.5285H13.7072V14.31C13.7072 12.6985 12.3964 11.3877 10.7848 11.3877C9.17331 11.3877 7.8625 12.6985 7.8625 14.31V17.5285H5.35797V7.86388L10.7848 4.59489L16.2117 7.86388V17.5285V17.5285Z" fill="#AEAEAE"/>
<path d="M8.93225 8.57324C8.93225 9.59479 9.76327 10.4258 10.7848 10.4258C11.8064 10.4258 12.6374 9.59479 12.6374 8.57324C12.6374 7.55168 11.8064 6.72066 10.7848 6.72066C9.76327 6.72066 8.93225 7.55168 8.93225 8.57324V8.57324ZM11.1659 8.57324C11.1659 8.78214 10.996 8.95431 10.7848 8.95431C10.5736 8.95431 10.4038 8.78443 10.4038 8.57324C10.4038 8.36204 10.5736 8.19216 10.7848 8.19216C10.996 8.19216 11.1659 8.36204 11.1659 8.57324Z" fill="#AEAEAE"/>
</svg>
