<svg width="22" height="22" viewBox="0 0 22 22" fill="none" xmlns="http://www.w3.org/2000/svg">
<path d="M20.5296 5.71573L15.8865 4.03868C15.8653 4.03162 15.8418 4.02927 15.8183 4.02221C15.7877 4.01516 15.7571 4.00575 15.7266 4.00105C15.6983 3.99869 15.6701 4.00105 15.6419 4.00105C15.6137 4.00105 15.5854 4.00105 15.5572 4.00105C15.5266 4.00575 15.4961 4.01516 15.4655 4.02221C15.442 4.02692 15.4208 4.02927 15.3973 4.03868L10.9988 5.62635L6.60273 4.03868C6.58156 4.03162 6.55804 4.02927 6.53452 4.02221C6.50394 4.01516 6.47336 4.00575 6.44278 4.00105C6.41456 3.99869 6.38633 4.00105 6.35811 4.00105C6.32988 4.00105 6.30166 4.00105 6.27343 4.00105C6.24286 4.00575 6.21228 4.01516 6.1817 4.02221C6.15818 4.02692 6.13701 4.02927 6.11349 4.03868L1.47277 5.71573C1.18817 5.81923 1 6.08737 1 6.39079V18.2572C1 18.49 1.1129 18.7088 1.30577 18.8429C1.42808 18.9275 1.57156 18.9722 1.71739 18.9722C1.79972 18.9722 1.88204 18.9581 1.95966 18.9299L6.35811 17.3422L10.7566 18.9299C10.7566 18.9299 10.766 18.9299 10.7707 18.9322C10.7965 18.9417 10.8224 18.9464 10.8483 18.9534C10.86 18.9558 10.8718 18.9605 10.8836 18.9628C10.9212 18.9699 10.9588 18.9722 10.9988 18.9722H11.0012C11.0388 18.9722 11.0788 18.9675 11.1164 18.9628C11.1282 18.9628 11.14 18.9581 11.1517 18.9534C11.1776 18.9487 11.2035 18.9417 11.2293 18.9322C11.234 18.9322 11.2387 18.9322 11.2434 18.9299L15.6419 17.3422L20.0403 18.9299C20.1203 18.9581 20.2026 18.9722 20.2826 18.9722C20.4284 18.9722 20.5719 18.9275 20.6942 18.8429C20.8847 18.7088 21 18.49 21 18.2572V6.38844C21 6.08737 20.8118 5.81688 20.5272 5.71338L20.5296 5.71573ZM2.43244 6.89179L5.64071 5.73455V16.0768L2.43244 17.234V6.89179ZM7.0755 5.73455L10.2838 6.89179V17.2364L7.0755 16.0791V5.73455ZM11.7186 6.89179L14.9268 5.73455V16.0768L11.7186 17.234V6.89179ZM19.5699 17.2364L16.3616 16.0791V5.73455L19.5699 6.89179V17.2364V17.2364Z" fill="#AEAEAE"/>
</svg>
