<svg width="22" height="22" viewBox="0 0 22 22" fill="none" xmlns="http://www.w3.org/2000/svg">
<path d="M10.2826 5.32173L6.62317 4V17.389L10.2826 18.7107V5.32173Z" fill="#3E3A39"/>
<path d="M15.3767 4L11.7173 5.32173V18.7107L15.3767 17.389V4Z" fill="#3E3A39"/>
<path d="M20.5273 5.66745L16.8114 4.3269V17.7159L20.0405 18.8824C20.1204 18.9106 20.2027 18.9247 20.2827 18.9247C20.4285 18.9247 20.572 18.8801 20.6943 18.7954C20.8848 18.6613 21 18.4426 21 18.2098V6.34243C21 6.04139 20.8119 5.77093 20.5273 5.66745V5.66745Z" fill="#3E3A39"/>
<path d="M5.19097 4.3269L1.47272 5.66745C1.18815 5.77093 1 6.03904 1 6.34243V18.2074C1 18.4403 1.11289 18.659 1.30574 18.793C1.42803 18.8777 1.5715 18.9224 1.71731 18.9224C1.79962 18.9224 1.88194 18.9083 1.95955 18.8801L5.18862 17.7135V4.3269H5.19097Z" fill="#3E3A39"/>
</svg>
