<svg width="22" height="22" viewBox="0 0 22 22" fill="none" xmlns="http://www.w3.org/2000/svg">
<path d="M19.8822 9.24689C19.9 9.21845 19.9156 9.19002 19.9289 9.16159C19.9333 9.15065 19.94 9.13971 19.9445 9.12878C19.9622 9.08722 19.9733 9.04566 19.9844 9.0041C19.9867 8.99316 19.9867 8.98223 19.9889 8.97129C19.9956 8.93629 19.9978 8.9013 20 8.8663C20 8.85974 20 8.85318 20 8.84443C20 8.83787 20 8.83131 20 8.82474C20 8.78756 19.9956 8.74819 19.9889 8.711C19.9889 8.70226 19.9889 8.69569 19.9844 8.68694C19.9756 8.64539 19.9622 8.60164 19.9445 8.56227C19.94 8.54915 19.9311 8.53602 19.9267 8.5229C19.9178 8.5054 19.9111 8.4879 19.9022 8.4704L16.9471 3.3784C16.8115 3.14436 16.5582 3 16.2827 3H6.71729C6.44399 3 6.19069 3.14436 6.05293 3.3784L3.09777 8.4704C3.08888 8.4879 3.07999 8.5054 3.07332 8.5229C3.06666 8.53602 3.05999 8.54915 3.05555 8.56227C3.03777 8.60383 3.02444 8.64539 3.01555 8.68694C3.01555 8.69351 3.01555 8.70226 3.01111 8.711C3.00444 8.74819 3 8.78756 3 8.82474C3 8.83131 3 8.83787 3 8.84443C3 8.85099 3 8.85974 3 8.8663C3 8.9013 3.00444 8.93629 3.01111 8.97129C3.01111 8.98223 3.01333 8.99316 3.01555 9.0041C3.02444 9.04566 3.03777 9.08941 3.05555 9.12878C3.05999 9.13971 3.06666 9.15065 3.0711 9.16159C3.08443 9.19002 3.09999 9.21845 3.11776 9.24689C3.12665 9.26001 3.13554 9.27314 3.14443 9.28626C3.15331 9.2972 3.15998 9.30813 3.16664 9.31907L10.9056 18.7178C10.9056 18.7178 10.9167 18.7266 10.9212 18.7332C10.9501 18.766 10.9812 18.7966 11.0145 18.825C11.0212 18.8294 11.0256 18.836 11.0301 18.8403C11.0701 18.8709 11.1123 18.8972 11.1589 18.9191C11.17 18.9256 11.1834 18.93 11.1945 18.9344C11.23 18.9497 11.2678 18.9628 11.3056 18.9716C11.3189 18.9759 11.3322 18.9781 11.3456 18.9825C11.3945 18.9934 11.4456 19 11.4989 19C11.5522 19 11.6011 18.9934 11.6522 18.9825C11.6655 18.9803 11.6789 18.9759 11.6922 18.9716C11.73 18.9606 11.7677 18.9497 11.8033 18.9344C11.8144 18.93 11.8277 18.9256 11.8388 18.9191C11.8833 18.8972 11.9277 18.8709 11.9677 18.8403C11.9744 18.836 11.9788 18.8294 11.9833 18.825C12.0166 18.7966 12.0477 18.766 12.0766 18.7332C12.081 18.7288 12.0877 18.7244 12.0921 18.7178L19.8334 9.31688C19.8334 9.31688 19.8489 9.29501 19.8556 9.28407C19.8645 9.27095 19.8734 9.25783 19.8822 9.2447V9.24689ZM6.56842 5.5285L7.76827 8.092H5.07973L6.56842 5.5285ZM10.1146 8.092L11.5011 5.12604L12.8876 8.092H10.1146ZM13.1409 9.59686L11.5011 15.4238L9.86133 9.59686H13.1409V9.59686ZM12.892 4.50485H15.2273L14.0586 7.00273L12.8898 4.50485H12.892ZM8.93922 7.00273L7.77049 4.50485H10.1057L8.937 7.00273H8.93922ZM8.27264 9.59686L9.78356 14.9645L5.36636 9.59686H8.27487H8.27264ZM14.7251 9.59686H17.6336L13.2142 14.9645L14.7251 9.59686ZM15.2317 8.092L16.4316 5.5285L17.9203 8.092H15.2317V8.092Z" fill="#AEAEAE"/>
</svg>
