<svg width="22" height="22" viewBox="0 0 22 22" fill="none" xmlns="http://www.w3.org/2000/svg">
<path d="M18.8398 10.3906L3.97936 3.06947C3.72509 2.94445 3.41783 2.99107 3.21229 3.18601C3.00463 3.38308 2.94318 3.68609 3.05549 3.94885L6.09835 11.0008L3.05549 18.0528C2.94318 18.3134 3.00463 18.6186 3.21017 18.8135C3.33943 18.9364 3.50895 19 3.67847 19C3.78018 19 3.88401 18.9767 3.97936 18.9301L18.8398 11.609C19.0729 11.4946 19.2191 11.2572 19.2191 10.9987C19.2191 10.7402 19.0729 10.5029 18.8398 10.3884V10.3906ZM5.03462 5.10369L15.6232 10.3206H7.28498L5.03462 5.10369ZM7.28498 11.6789H15.6232L5.03462 16.8958L7.28498 11.6789V11.6789Z" fill="#AEAEAE"/>
</svg>
