<svg width="22" height="22" viewBox="0 0 22 22" fill="none" xmlns="http://www.w3.org/2000/svg">
<g clip-path="url(#clip0_141_46)">
<path d="M19.2095 7.9531L17.3251 6.81926L11.1625 3.10559C10.9284 2.96558 10.6369 2.96558 10.4028 3.10559L4.24008 6.81696L2.3557 7.9531C2.00912 8.16196 1.89666 8.61412 2.10552 8.96299C2.31439 9.31187 2.76884 9.42433 3.11542 9.21317L3.88432 8.74954V18.2609C3.88432 18.6672 4.21483 18.9977 4.62109 18.9977H7.61865V14.125C7.61865 12.3783 9.0348 10.9598 10.7838 10.9598C12.5327 10.9598 13.9489 12.376 13.9489 14.125V18.9977H16.9464C17.3527 18.9977 17.6832 18.6672 17.6832 18.2609V8.75183L18.4521 9.21547C18.5715 9.28662 18.7023 9.32105 18.8308 9.32105C19.081 9.32105 19.3243 9.19481 19.462 8.96529C19.6709 8.61642 19.5584 8.16426 19.2118 7.95539L19.2095 7.9531ZM10.7815 9.03874C10.0952 9.03874 9.53746 8.481 9.53746 7.79473C9.53746 7.10845 10.0952 6.55072 10.7815 6.55072C11.4677 6.55072 12.0255 7.10845 12.0255 7.79473C12.0255 8.481 11.4677 9.03874 10.7815 9.03874V9.03874Z" fill="#3E3A39"/>
</g>
<defs>
<clipPath id="clip0_141_46">
<rect width="17.5676" height="16" fill="white" transform="translate(2 3)"/>
</clipPath>
</defs>
</svg>
